PathFileType	4	(X/Y/Z)	Patient4_TMGait_0pt2_02_right_20.trc.trc
DataRate	CameraRate	NumFrames	NumMarkers	Units	OrigDataRate	OrigDataStartFrame	OrigNumFrames
45.602605863192	45.602605863192	4	33	mm	45.602605863192	36	       141
Frame#	Time	R.Midfoot.Superior			Sacral			L.Shoulder			Chest			R.Shoulder			Neck			R.ASIS			L.ASIS			R.Thigh.Superior			R.Thigh.Lateral			R.Thigh.Inferior			R.Patella			L.Thigh.Superior			L.Thigh.Lateral			L.Thigh.Inferior			L.Patella			L.Shank.Superior			L.Shank.Lateral			L.Shank.Inferior			R.Shank.Superior			R.Shank.Lateral			R.Shank.Inferior			R.Heel			R.Midfoot.Lateral			R.Toe			L.Heel			L.Midfoot.Lateral			L.Midfoot.Superior			L.Toe			L.Elbow			L.Wrist			R.Elbow			R.Wrist			
		X1	Y1	Z1	X2	Y2	Z2	X3	Y3	Z3	X4	Y4	Z4	X5	Y5	Z5	X6	Y6	Z6	X7	Y7	Z7	X8	Y8	Z8	X9	Y9	Z9	X10	Y10	Z10	X11	Y11	Z11	X12	Y12	Z12	X13	Y13	Z13	X14	Y14	Z14	X15	Y15	Z15	X16	Y16	Z16	X17	Y17	Z17	X18	Y18	Z18	X19	Y19	Z19	X20	Y20	Z20	X21	Y21	Z21	X22	Y22	Z22	X23	Y23	Z23	X24	Y24	Z24	X25	Y25	Z25	X26	Y26	Z26	X27	Y27	Z27	X28	Y28	Z28	X29	Y29	Z29	X30	Y30	Z30	X31	Y31	Z31	X32	Y32	Z32	X33	Y33	Z33	

36	45.027500000000	1206.998188106693	97.754036321100	614.517794055004	951.859207876171	1010.614430850017	472.400823148072	1172.471150526104	1432.659579310448	319.346766480508	1234.096639793015	1365.747271389859	499.396587871470	1117.028035223630	1446.700546414291	647.901622832992	1117.814457654014	1497.577844776616	467.765892747499	1159.702545029862	944.548281042247	626.695720978565	1187.501187013302	959.689076800295	352.217358885683	1211.916606785665	746.265632211285	594.794742748972	1134.061966979673	634.857957840326	654.095185195191	1215.355122818384	584.297826055636	576.451340408106	1220.660973788728	498.265648311868	584.215292681818	1183.870784580258	730.672426837775	371.187106163918	1074.154238611235	635.874348298959	293.437440506384	1133.742219791558	541.239048488480	355.771535289481	1119.361784397440	472.161186435347	358.426322522938	1077.660629190762	409.998340663643	345.035851207477	966.925633826012	319.261523546032	286.596405758606	994.081403051596	193.927289883835	347.469873078477	1194.798178108892	408.444556696131	594.727549349334	1128.227784256100	306.708548635054	665.020496500575	1168.154658401022	209.231828821878	604.142749396860	1033.913004646633	44.100119251860	590.987935369424	1122.067453883801	37.568911734787	659.044165371816	1328.832587997340	46.311544618293	635.765162593500	841.726756336692	53.623016420761	381.237734823575	915.309764120966	42.978999847818	301.601381679725	1003.300349108773	98.201264067475	326.999803131264	1126.910998941599	38.617537199935	297.554706703862	1304.286963037800	1118.333906623947	193.869188809227	1563.688110794153	1091.254289476541	207.251634053470	973.610988519630	1128.542329168540	749.695802568600	978.782530775994	865.985476554600	763.633582715726	
37	45.049428571429	1202.846580810242	97.675175727471	614.696529274421	952.241946561337	1010.870940018453	481.220895038488	1169.551516521636	1432.963970634587	324.329332172741	1234.257817107172	1366.283395188326	503.402445441758	1119.455345067021	1446.853575129112	653.851645681417	1117.430063638898	1498.001045544879	473.520471809588	1162.408890373662	944.872676254397	632.308122047105	1186.242102680293	960.198566925740	357.323846904560	1213.006245182266	745.978675049326	599.196822751780	1134.931287679227	634.555190539412	658.577044699948	1215.224383412977	583.871454963468	580.028863561336	1219.939619502719	497.547495345507	587.098917988861	1184.094071547993	731.458643962054	374.869730646359	1074.271995009031	636.499906858044	297.587446288107	1136.070784379052	541.493884032948	357.927717973729	1122.312587505842	471.529115169976	359.646600476881	1078.860279161576	410.061851395655	346.510427809519	965.940460938624	321.642218712886	288.521210976857	992.270132866943	195.159373114030	347.530019333899	1193.344984737680	407.859836576169	597.067170959275	1126.404310683418	306.078782823411	666.892047276344	1165.112238429086	208.767172950241	604.984823745286	1029.747222594174	44.077254974616	591.105608721044	1117.909684782324	37.503422451832	659.148542011068	1324.716238191717	46.107105595174	635.847694170993	838.004719870088	56.764435260330	380.947104986443	911.381077570636	44.440993733072	301.423245898829	1000.286501435497	98.590377118789	326.374865828223	1122.743833431537	38.326732329775	297.435319383074	1292.167286382601	1112.854553229839	200.126277410069	1549.604945650796	1069.801351177397	211.109363730681	984.266534327786	1125.511387992672	759.967600552792	997.386870092119	863.307123092551	775.223084973984	
38	45.071357142857	1198.618359626404	97.590793703256	614.856944369522	952.411740225946	1011.090282327028	490.048972747067	1166.400238262678	1433.153010739024	329.279097769602	1234.244155208480	1366.690116979547	507.291050212624	1121.890293491676	1446.921453612142	659.726650384856	1116.969542430137	1498.339697229513	479.254816617569	1164.880540595283	945.059649935091	637.797256744485	1184.653176693008	960.683895955740	362.402248039220	1213.782198615459	745.575066235576	603.502058382458	1135.430835531675	634.175944198591	662.992367991196	1214.709291111116	583.396018606069	583.558075586174	1218.763799441513	496.815283285006	589.998876447234	1184.845890536123	732.431249607594	378.542178956464	1075.486146314294	636.886174848187	301.665199276970	1139.892313028215	541.766336139258	360.041881514304	1126.896649883418	470.727785635333	360.691812637114	1081.441446767202	409.984317703658	347.875002019984	966.157068227186	324.312593624274	290.379051189942	991.182353452489	196.680805457015	347.489943554574	1191.529574356792	407.260141357338	599.441902328370	1124.237782536389	305.395228330698	668.759025311497	1161.866391577091	208.308927176553	605.858204399080	1025.503047233801	44.038891096902	591.197469367508	1113.671522790382	37.430778846305	659.237340528939	1320.502875223075	45.943418973522	635.893782787271	834.612745880674	60.943481979899	380.583455742851	907.611007268823	46.560133866477	301.173362572130	997.620670731655	99.169091050447	325.626117760927	1118.458520540396	37.988368783095	297.302042344007	1278.988099067922	1107.367758302156	206.320334323758	1532.778329035809	1046.453838316404	215.278522641426	995.817176628861	1122.210469487471	769.945577249825	1017.662993756106	860.632370309845	786.017850913508	
39	45.093285714286	1194.310311228381	97.499961053500	615.005932133661	952.340838588461	1011.233928083252	498.855452752281	1163.031187794786	1433.202190838887	334.189354434140	1234.053205967805	1366.921380038877	511.051857443330	1124.330204138719	1446.871228246722	665.497731206968	1116.436536069992	1498.559095622334	484.959110082699	1167.084117863719	945.102923527508	643.136739700828	1182.720234033376	961.114980184525	367.436578714546	1214.290085312676	745.072689215123	607.688447415803	1135.665540254825	633.714138730384	667.319147936155	1213.918269301123	582.878941170044	587.001923141769	1217.299588594341	496.055419707951	592.883796233359	1186.238513284450	733.648039362471	382.266008742631	1078.057996324223	637.040426385642	305.672427216629	1145.452358151452	542.139204085867	362.211636298975	1133.363249395069	469.837065256774	361.662047261880	1085.675920273364	409.815120251530	349.196701064698	967.862253867731	327.393952113836	292.198554257125	991.004213724418	198.632721395254	347.399842501478	1189.474765968659	406.628690134437	601.820197677891	1121.838477554755	304.661727616693	670.614075667234	1158.468790560613	207.842333638788	606.748759538136	1021.176986628417	43.987269799456	591.276554560028	1109.349813745135	37.352678922835	659.323362682773	1316.196514161653	45.817413302175	635.919037217824	831.706854441561	66.513699948053	380.186367263390	904.096157568756	49.644142821863	300.884637604332	995.409755612338	100.081820766807	324.798388814897	1114.025555387585	37.571524330206	297.161415341983	1264.867747204811	1101.972843704390	212.452388596292	1512.919948794937	1021.573616209877	219.795604926439	1008.237695010323	1118.675104002937	779.561192314657	1039.697112748374	858.103663253889	795.962641655410	
